<svg width="18" height="17" viewBox="0 0 18 17" fill="none" xmlns="http://www.w3.org/2000/svg">
<path d="M14.9789 3.37162H2.11401V4.72582H3.67134L5.89222 10.8197C6.03191 11.2148 6.2904 11.5571 6.63224 11.7995C6.97409 12.0419 7.38255 12.1727 7.80163 12.1739H13.6247V10.8197H7.80163C7.66248 10.8196 7.52673 10.7767 7.41284 10.6967C7.29896 10.6168 7.21247 10.5037 7.16516 10.3728L6.8537 9.4655H13.1372C13.431 9.46507 13.7168 9.36906 13.9513 9.19195C14.1858 9.01485 14.3564 8.76626 14.4372 8.48371L15.656 4.23153C15.6835 4.14262 15.6924 4.04899 15.6821 3.95648C15.6718 3.86397 15.6426 3.77458 15.5962 3.69389C15.5498 3.61319 15.4873 3.54292 15.4125 3.48748C15.3378 3.43203 15.2524 3.39259 15.1617 3.37162C15.1011 3.36176 15.0394 3.36176 14.9789 3.37162ZM13.1169 8.1113H6.34587L5.11356 4.72582H14.0783L13.1169 8.1113Z" fill="white"/>
<path d="M7.86928 14.8822C8.43021 14.8822 8.88493 14.4275 8.88493 13.8666C8.88493 13.3057 8.43021 12.851 7.86928 12.851C7.30836 12.851 6.85364 13.3057 6.85364 13.8666C6.85364 14.4275 7.30836 14.8822 7.86928 14.8822Z" fill="white"/>
<path d="M11.9319 14.8822C12.4928 14.8822 12.9476 14.4275 12.9476 13.8666C12.9476 13.3057 12.4928 12.851 11.9319 12.851C11.371 12.851 10.9163 13.3057 10.9163 13.8666C10.9163 14.4275 11.371 14.8822 11.9319 14.8822Z" fill="white"/>
</svg>
