<svg width="37" height="37" viewBox="0 0 37 37" fill="none" xmlns="http://www.w3.org/2000/svg">
<path d="M31.0497 19.4746L19.3814 6.02729C19.2759 5.90561 19.1455 5.80803 18.999 5.74114C18.8525 5.67426 18.6934 5.63965 18.5323 5.63965C18.3713 5.63965 18.2122 5.67426 18.0657 5.74114C17.9192 5.80803 17.7888 5.90561 17.6833 6.02729L6.01847 19.4746C5.98323 19.5151 5.96037 19.5649 5.95263 19.6181C5.94489 19.6712 5.95259 19.7255 5.97482 19.7744C5.99705 19.8233 6.03287 19.8648 6.078 19.8939C6.12314 19.923 6.1757 19.9385 6.22941 19.9386H9.07707C9.23879 19.9386 9.39347 19.8683 9.50246 19.7453L17.1982 10.8753V30.6718C17.1982 30.8265 17.3247 30.9531 17.4794 30.9531H19.5888C19.7435 30.9531 19.87 30.8265 19.87 30.6718V10.8753L27.5657 19.7453C27.6712 19.8683 27.8259 19.9386 27.9911 19.9386H30.8388C31.0779 19.9386 31.2079 19.6574 31.0497 19.4746Z" fill="white"/>
</svg>
