<svg width="21" height="16" viewBox="0 0 21 16" fill="none" xmlns="http://www.w3.org/2000/svg">
<path d="M1.75 3C1.75 2.55797 1.93437 2.13405 2.26256 1.82149C2.59075 1.50893 3.03587 1.33333 3.5 1.33333H17.5C17.9641 1.33333 18.4092 1.50893 18.7374 1.82149C19.0656 2.13405 19.25 2.55797 19.25 3V13C19.25 13.442 19.0656 13.8659 18.7374 14.1785C18.4092 14.4911 17.9641 14.6667 17.5 14.6667H3.5C3.03587 14.6667 2.59075 14.4911 2.26256 14.1785C1.93437 13.8659 1.75 13.442 1.75 13V3Z" stroke="#333333" stroke-width="2" stroke-linecap="round" stroke-linejoin="round"/>
<path d="M1.75 4.66667L8.31338 9.6675C8.934 10.1404 9.70517 10.3981 10.5 10.3981C11.2948 10.3981 12.066 10.1404 12.6866 9.6675L19.25 4.66667" stroke="#333333" stroke-width="2" stroke-linejoin="round"/>
</svg>
