<svg width="25" height="26" viewBox="0 0 25 26" fill="none" xmlns="http://www.w3.org/2000/svg">
<path d="M12.5002 15.0866C14.7981 15.0866 16.6668 13.2179 16.6668 10.92C16.6668 8.62205 14.7981 6.7533 12.5002 6.7533C10.2022 6.7533 8.3335 8.62205 8.3335 10.92C8.3335 13.2179 10.2022 15.0866 12.5002 15.0866ZM12.5002 8.83663C13.6491 8.83663 14.5835 9.771 14.5835 10.92C14.5835 12.0689 13.6491 13.0033 12.5002 13.0033C11.3512 13.0033 10.4168 12.0689 10.4168 10.92C10.4168 9.771 11.3512 8.83663 12.5002 8.83663Z" fill="#333333"/>
<path d="M11.8958 23.2262C12.0721 23.3521 12.2833 23.4198 12.4999 23.4198C12.7166 23.4198 12.9278 23.3521 13.1041 23.2262C13.4208 23.0023 20.8635 17.6283 20.8333 10.92C20.8333 6.32517 17.0947 2.58663 12.4999 2.58663C7.90514 2.58663 4.1666 6.32517 4.1666 10.9148C4.13639 17.6283 11.5791 23.0023 11.8958 23.2262ZM12.4999 4.66997C15.9468 4.66997 18.7499 7.47309 18.7499 10.9252C18.7718 15.5481 14.1791 19.6991 12.4999 21.0606C10.8218 19.6981 6.22805 15.546 6.24993 10.92C6.24993 7.47309 9.05305 4.66997 12.4999 4.66997Z" fill="#333333"/>
</svg>
