<svg width="22" height="22" viewBox="0 0 22 22" fill="none" xmlns="http://www.w3.org/2000/svg">
<path d="M15.1894 20.1667C15.4328 20.1681 15.6741 20.121 15.8992 20.0281C16.1242 19.9353 16.3286 19.7985 16.5002 19.6258L18.9844 17.1417C19.1551 16.9699 19.2509 16.7376 19.2509 16.4954C19.2509 16.2532 19.1551 16.0209 18.9844 15.8492L15.3177 12.1825C15.1459 12.0118 14.9136 11.9159 14.6714 11.9159C14.4293 11.9159 14.1969 12.0118 14.0252 12.1825L12.5585 13.64C11.5431 13.3693 10.6026 12.8708 9.80853 12.1825C9.12206 11.3871 8.62386 10.4471 8.35103 9.4325L9.80853 7.96583C9.97926 7.79408 10.0751 7.56175 10.0751 7.31958C10.0751 7.07741 9.97926 6.84508 9.80853 6.67333L6.14186 3.00667C5.97011 2.83594 5.73778 2.74011 5.49561 2.74011C5.25344 2.74011 5.02111 2.83594 4.84936 3.00667L2.37436 5.5C2.20169 5.67164 2.06493 5.87595 1.97208 6.10101C1.87922 6.32607 1.83212 6.56737 1.83353 6.81083C1.91669 10.3329 3.3241 13.6943 5.77519 16.225C8.30585 18.6761 11.6673 20.0835 15.1894 20.1667ZM5.50019 4.95917L7.87436 7.33333L6.69186 8.51583C6.57986 8.62074 6.49599 8.75209 6.44795 8.89784C6.3999 9.04358 6.38921 9.19905 6.41686 9.35C6.75948 10.8812 7.48488 12.3004 8.52519 13.475C9.69886 14.5167 11.1185 15.2422 12.6502 15.5833C12.7989 15.6144 12.9529 15.6081 13.0985 15.5649C13.2441 15.5217 13.3767 15.443 13.4844 15.3358L14.6669 14.1258L17.041 16.5L15.2077 18.3333C12.1678 18.2551 9.26724 17.0419 7.07686 14.9325C4.96203 12.7412 3.74533 9.83685 3.66686 6.7925L5.50019 4.95917ZM18.3335 10.0833H20.1669C20.1906 8.99342 19.9935 7.90997 19.5873 6.89829C19.1811 5.88661 18.5743 4.96764 17.8034 4.19677C17.0326 3.4259 16.1136 2.81908 15.1019 2.4129C14.0902 2.00671 13.0068 1.80956 11.9169 1.83333V3.66667C12.7674 3.63724 13.615 3.78309 14.4068 4.09515C15.1986 4.4072 15.9178 4.87879 16.5196 5.4806C17.1214 6.08241 17.593 6.80158 17.905 7.5934C18.2171 8.38521 18.363 9.23275 18.3335 10.0833Z" fill="#333333"/>
<path d="M11.9165 7.33333C13.8415 7.33333 14.6665 8.15833 14.6665 10.0833H16.4998C16.4998 7.13167 14.8682 5.5 11.9165 5.5V7.33333Z" fill="#333333"/>
</svg>
