<svg width="36" height="35" viewBox="0 0 36 35" fill="none" xmlns="http://www.w3.org/2000/svg">
<path d="M25.375 4.85169H2.41663V7.26836H5.19579L9.15913 18.1434C9.40842 18.8485 9.86971 19.4592 10.4798 19.8919C11.0898 20.3246 11.8187 20.5579 12.5666 20.56H22.9583V18.1434H12.5666C12.3183 18.1433 12.076 18.0666 11.8728 17.9239C11.6696 17.7812 11.5152 17.5794 11.4308 17.3459L10.875 15.7267H22.0883C22.6127 15.7259 23.1227 15.5546 23.5412 15.2385C23.9597 14.9225 24.2641 14.4788 24.4083 13.9746L26.5833 6.38628C26.6324 6.2276 26.6483 6.06051 26.6299 5.89542C26.6116 5.73034 26.5594 5.57081 26.4766 5.4268C26.3938 5.2828 26.2822 5.1574 26.1488 5.05845C26.0154 4.9595 25.863 4.88911 25.7012 4.85169C25.5932 4.8341 25.483 4.8341 25.375 4.85169ZM22.052 13.31H9.96871L7.76954 7.26836H23.7679L22.052 13.31Z" fill="#222222"/>
<path d="M12.6875 25.3934C13.6885 25.3934 14.5 24.5819 14.5 23.5809C14.5 22.5799 13.6885 21.7684 12.6875 21.7684C11.6865 21.7684 10.875 22.5799 10.875 23.5809C10.875 24.5819 11.6865 25.3934 12.6875 25.3934Z" fill="#222222"/>
<path d="M19.9375 25.3934C20.9385 25.3934 21.75 24.5819 21.75 23.5809C21.75 22.5799 20.9385 21.7684 19.9375 21.7684C18.9365 21.7684 18.125 22.5799 18.125 23.5809C18.125 24.5819 18.9365 25.3934 19.9375 25.3934Z" fill="#222222"/>
<circle cx="26.1128" cy="25.3934" r="9.14918" fill="#F5CC61"/>
<path d="M22.5025 29.3934H28.9105V28.0734H25.2745L27.6505 25.7334C27.9945 25.4134 28.2745 25.0494 28.4905 24.6414C28.7065 24.2334 28.8145 23.8094 28.8145 23.3694C28.8145 23.0894 28.7545 22.8014 28.6345 22.5054C28.5145 22.2094 28.3345 21.9374 28.0945 21.6894C27.8625 21.4414 27.5665 21.2414 27.2065 21.0894C26.8465 20.9294 26.4225 20.8494 25.9345 20.8494C25.3025 20.8494 24.7625 20.9854 24.3145 21.2574C23.8665 21.5214 23.5265 21.8894 23.2945 22.3614C23.0705 22.8254 22.9585 23.3574 22.9585 23.9574H24.3625C24.3625 23.5894 24.4225 23.2654 24.5425 22.9854C24.6705 22.7054 24.8505 22.4934 25.0825 22.3494C25.3145 22.1974 25.5905 22.1214 25.9105 22.1214C26.1425 22.1214 26.3465 22.1614 26.5225 22.2414C26.6985 22.3134 26.8465 22.4134 26.9665 22.5414C27.0945 22.6694 27.1865 22.8134 27.2425 22.9734C27.3065 23.1254 27.3385 23.2814 27.3385 23.4414C27.3385 23.6654 27.3025 23.8774 27.2305 24.0774C27.1585 24.2774 27.0505 24.4774 26.9065 24.6774C26.7625 24.8774 26.5905 25.0854 26.3905 25.3014L22.5025 29.3934Z" fill="white"/>
</svg>
