<svg width="33" height="33" viewBox="0 0 33 33" fill="none" xmlns="http://www.w3.org/2000/svg">
<path fill-rule="evenodd" clip-rule="evenodd" d="M2.68268 8.12513C2.68268 6.70215 3.24796 5.33745 4.25416 4.33125C5.26036 3.32504 6.62506 2.75977 8.04805 2.75977H24.1441C25.5671 2.75977 26.9318 3.32504 27.938 4.33125C28.9442 5.33745 29.5095 6.70215 29.5095 8.12513V24.2212C29.5095 25.6442 28.9442 27.0089 27.938 28.0151C26.9318 29.0213 25.5671 29.5866 24.1441 29.5866H8.04805C6.62506 29.5866 5.26036 29.0213 4.25416 28.0151C3.24796 27.0089 2.68268 25.6442 2.68268 24.2212V8.12513ZM8.04805 5.44245C7.33655 5.44245 6.6542 5.72509 6.1511 6.22819C5.648 6.73129 5.36536 7.41364 5.36536 8.12513V24.2212C5.36536 24.9327 5.648 25.6151 6.1511 26.1182C6.6542 26.6213 7.33655 26.9039 8.04805 26.9039H16.0961V17.5145H14.7548C14.399 17.5145 14.0578 17.3732 13.8063 17.1217C13.5547 16.8701 13.4134 16.5289 13.4134 16.1732C13.4134 15.8174 13.5547 15.4763 13.8063 15.2247C14.0578 14.9732 14.399 14.8318 14.7548 14.8318H16.0961V12.8198C16.0961 11.5747 16.5907 10.3806 17.4711 9.50018C18.3516 8.61975 19.5457 8.12513 20.7908 8.12513H21.5956C21.9513 8.12513 22.2925 8.26645 22.5441 8.518C22.7956 8.76955 22.9369 9.11073 22.9369 9.46647C22.9369 9.82222 22.7956 10.1634 22.5441 10.4149C22.2925 10.6665 21.9513 10.8078 21.5956 10.8078H20.7908C20.5266 10.8078 20.2649 10.8599 20.0208 10.961C19.7767 11.0621 19.5549 11.2103 19.3681 11.3971C19.1813 11.584 19.033 11.8058 18.9319 12.0499C18.8308 12.294 18.7788 12.5556 18.7788 12.8198V14.8318H21.5956C21.9513 14.8318 22.2925 14.9732 22.5441 15.2247C22.7956 15.4763 22.9369 15.8174 22.9369 16.1732C22.9369 16.5289 22.7956 16.8701 22.5441 17.1217C22.2925 17.3732 21.9513 17.5145 21.5956 17.5145H18.7788V26.9039H24.1441C24.8556 26.9039 25.538 26.6213 26.0411 26.1182C26.5442 25.6151 26.8268 24.9327 26.8268 24.2212V8.12513C26.8268 7.41364 26.5442 6.73129 26.0411 6.22819C25.538 5.72509 24.8556 5.44245 24.1441 5.44245H8.04805Z" fill="black"/>
</svg>
