<svg width="33" height="33" viewBox="0 0 33 33" fill="none" xmlns="http://www.w3.org/2000/svg">
<path fill-rule="evenodd" clip-rule="evenodd" d="M2.68268 8.12513C2.68268 6.70215 3.24796 5.33745 4.25416 4.33125C5.26036 3.32504 6.62506 2.75977 8.04805 2.75977H24.1441C25.5671 2.75977 26.9318 3.32504 27.938 4.33125C28.9442 5.33745 29.5095 6.70215 29.5095 8.12513V24.2212C29.5095 25.6442 28.9442 27.0089 27.938 28.0151C26.9318 29.0213 25.5671 29.5866 24.1441 29.5866H8.04805C6.62506 29.5866 5.26036 29.0213 4.25416 28.0151C3.24796 27.0089 2.68268 25.6442 2.68268 24.2212V8.12513ZM8.04805 5.44245C7.33655 5.44245 6.6542 5.72509 6.1511 6.22819C5.648 6.73129 5.36536 7.41364 5.36536 8.12513V24.2212C5.36536 24.9327 5.648 25.6151 6.1511 26.1182C6.6542 26.6213 7.33655 26.9039 8.04805 26.9039H24.1441C24.8556 26.9039 25.538 26.6213 26.0411 26.1182C26.5442 25.6151 26.8268 24.9327 26.8268 24.2212V8.12513C26.8268 7.41364 26.5442 6.73129 26.0411 6.22819C25.538 5.72509 24.8556 5.44245 24.1441 5.44245H8.04805ZM16.0961 12.1492C15.0289 12.1492 14.0053 12.5731 13.2507 13.3278C12.496 14.0824 12.0721 15.1059 12.0721 16.1732C12.0721 17.2404 12.496 18.2639 13.2507 19.0186C14.0053 19.7733 15.0289 20.1972 16.0961 20.1972C17.1633 20.1972 18.1869 19.7733 18.9415 19.0186C19.6962 18.2639 20.1201 17.2404 20.1201 16.1732C20.1201 15.1059 19.6962 14.0824 18.9415 13.3278C18.1869 12.5731 17.1633 12.1492 16.0961 12.1492ZM9.38939 16.1732C9.38939 14.3945 10.096 12.6886 11.3537 11.4308C12.6115 10.1731 14.3174 9.46648 16.0961 9.46648C17.8748 9.46648 19.5807 10.1731 20.8385 11.4308C22.0962 12.6886 22.8028 14.3945 22.8028 16.1732C22.8028 17.9519 22.0962 19.6578 20.8385 20.9155C19.5807 22.1733 17.8748 22.8799 16.0961 22.8799C14.3174 22.8799 12.6115 22.1733 11.3537 20.9155C10.096 19.6578 9.38939 17.9519 9.38939 16.1732ZM23.4735 10.8078C24.0071 10.8078 24.5189 10.5958 24.8962 10.2185C25.2735 9.84119 25.4855 9.32942 25.4855 8.7958C25.4855 8.26219 25.2735 7.75042 24.8962 7.3731C24.5189 6.99577 24.0071 6.78379 23.4735 6.78379C22.9399 6.78379 22.4281 6.99577 22.0508 7.3731C21.6734 7.75042 21.4615 8.26219 21.4615 8.7958C21.4615 9.32942 21.6734 9.84119 22.0508 10.2185C22.4281 10.5958 22.9399 10.8078 23.4735 10.8078Z" fill="black"/>
</svg>
