<svg width="21" height="20" viewBox="0 0 21 20" fill="none" xmlns="http://www.w3.org/2000/svg">
<path d="M1.0531 9.17699C1.05307 8.58744 1.1952 8.00659 1.46744 7.48366C1.73967 6.96074 2.13398 6.51117 2.61693 6.17307L8.11693 2.32307C8.73327 1.89159 9.46741 1.66016 10.2198 1.66016C10.9721 1.66016 11.7063 1.89159 12.3226 2.32307L17.8226 6.17307C18.3056 6.51117 18.6999 6.96074 18.9721 7.48366C19.2443 8.00659 19.3865 8.58744 19.3864 9.17699V16.4342C19.3864 16.9205 19.1933 17.3868 18.8495 17.7306C18.5056 18.0744 18.0393 18.2676 17.5531 18.2676H2.88643C2.4002 18.2676 1.93389 18.0744 1.59007 17.7306C1.24625 17.3868 1.0531 16.9205 1.0531 16.4342V9.17699Z" stroke="#CFCFCF" stroke-width="2" stroke-linecap="round" stroke-linejoin="round"/>
<path d="M1.0531 7.26758L7.92902 12.7685C8.5792 13.2887 9.38708 13.5721 10.2198 13.5721C11.0525 13.5721 11.8603 13.2887 12.5105 12.7685L19.3864 7.26758" stroke="#CFCFCF" stroke-width="2" stroke-linejoin="round"/>
</svg>
