<svg width="19" height="18" viewBox="0 0 19 18" fill="none" xmlns="http://www.w3.org/2000/svg">
<path d="M8.72534 3.08521H9.78003C9.87378 3.08521 9.92065 3.12948 9.92065 3.21802V14.9055C9.92065 14.9941 9.87378 15.0383 9.78003 15.0383H8.72534C8.63159 15.0383 8.58472 14.9941 8.58472 14.9055V3.21802C8.58472 3.12948 8.63159 3.08521 8.72534 3.08521Z" fill="black"/>
<path d="M3.34644 8.43091H15.1589C15.2527 8.43091 15.2996 8.47518 15.2996 8.56372V9.55981C15.2996 9.64836 15.2527 9.69263 15.1589 9.69263H3.34644C3.25269 9.69263 3.20581 9.64836 3.20581 9.55981V8.56372C3.20581 8.47518 3.25269 8.43091 3.34644 8.43091Z" fill="black"/>
</svg>
