<svg width="33" height="33" viewBox="0 0 33 33" fill="none" xmlns="http://www.w3.org/2000/svg">
<path fill-rule="evenodd" clip-rule="evenodd" d="M19.9176 7.66629C19.3048 7.66603 18.6996 7.80183 18.1457 8.06388C17.5918 8.32594 17.1029 8.7077 16.7145 9.18163C16.326 9.65555 16.0476 10.2098 15.8994 10.8044C15.7512 11.399 15.7368 12.0191 15.8573 12.6199C15.8988 12.828 15.8903 13.0431 15.8325 13.2473C15.7747 13.4516 15.6693 13.6392 15.5249 13.7948C15.3804 13.9503 15.2012 14.0694 15.0018 14.1422C14.8023 14.2149 14.5885 14.2393 14.3778 14.2134C11.4936 13.8591 8.77469 12.6735 6.55246 10.801C6.59404 11.6085 6.87438 12.467 7.48201 13.3657L8.39278 14.7124L6.89718 15.3495L6.60879 15.4729C6.82341 15.7184 7.08094 15.9692 7.36933 16.2173C7.75486 16.5473 8.1627 16.8503 8.58995 17.1241L8.60471 17.1335H8.60605L10.6824 18.393L8.50947 19.4795C8.40217 19.5331 8.29486 19.5814 8.18755 19.6244C8.65479 20.0126 9.16953 20.3398 9.71936 20.5982L11.5838 21.4794L10.0225 22.8261C9.17075 23.5612 8.31364 24.1098 7.20166 24.3995C8.9071 25.3079 10.8105 25.7811 12.7427 25.7771C19.1892 25.7771 24.3802 20.633 24.3802 14.3301V13.6326L24.9503 13.2315C25.841 12.6065 26.47 11.7614 26.9207 10.7943H24.0234L23.6586 10.0297C23.3226 9.3224 22.7929 8.72487 22.131 8.30653C21.469 7.88818 20.702 7.66617 19.9189 7.66629H19.9176ZM4.78725 17.4581C4.66067 17.603 4.56677 17.7735 4.51192 17.958C4.45707 18.1425 4.44255 18.3366 4.46935 18.5271C4.62092 19.6015 5.26343 20.5271 5.97434 21.234C6.16749 21.4258 6.37406 21.6095 6.59135 21.7853L6.49075 21.8121C5.84557 21.973 4.97504 22.0066 3.52505 21.8657C3.25122 21.8389 2.97576 21.8968 2.73601 22.0318C2.49626 22.1668 2.30381 22.3722 2.18476 22.6203C2.06572 22.8683 2.02583 23.147 2.07051 23.4185C2.11519 23.69 2.24228 23.9412 2.43454 24.138C3.77691 25.5101 5.38052 26.5994 7.15072 27.3416C8.92093 28.0839 10.8219 28.4641 12.7414 28.4598C20.4045 28.4598 26.69 22.5096 27.0455 15.0007C28.7758 13.5481 29.641 11.5803 30.1078 9.79232C30.1597 9.59387 30.1653 9.38616 30.1244 9.18516C30.0834 8.98417 29.9969 8.79524 29.8715 8.63292C29.7461 8.47059 29.5852 8.33919 29.401 8.24882C29.2169 8.15844 29.0145 8.11151 28.8093 8.11161H25.6532C24.8811 6.91289 23.7529 5.98618 22.4271 5.4617C21.1012 4.93723 19.6444 4.84135 18.2612 5.18755C16.8781 5.53374 15.6382 6.30461 14.7157 7.39182C13.7932 8.47903 13.2346 9.82795 13.1183 11.249C10.6458 10.6054 8.43346 9.21125 6.78585 7.25852C6.63994 7.086 6.45281 6.95314 6.24183 6.87226C6.03085 6.79138 5.80285 6.7651 5.57901 6.79588C5.35516 6.82665 5.14272 6.91347 4.96139 7.04829C4.78006 7.1831 4.63573 7.36153 4.54178 7.56703C3.72893 9.34028 3.57334 11.3845 4.48008 13.4636L4.16621 13.5977C3.86585 13.7257 3.62248 13.9588 3.48173 14.2534C3.34097 14.548 3.3125 14.8838 3.40164 15.1979C3.65113 16.0725 4.21181 16.8451 4.78591 17.4581H4.78725Z" fill="black"/>
</svg>
