<svg width="19" height="20" viewBox="0 0 19 20" fill="none" xmlns="http://www.w3.org/2000/svg">
<path d="M9.96826 0.280457C8.97935 0.280457 8.01266 0.573701 7.19041 1.12311C6.36817 1.67252 5.7273 2.45341 5.34886 3.36704C4.97043 4.28067 4.87141 5.286 5.06434 6.25591C5.25726 7.22581 5.73347 8.11673 6.43273 8.81599C7.13199 9.51525 8.02291 9.99146 8.99281 10.1844C9.96272 10.3773 10.968 10.2783 11.8817 9.89985C12.7953 9.52142 13.5762 8.88055 14.1256 8.05831C14.675 7.23606 14.9683 6.26936 14.9683 5.28046C14.9683 3.95437 14.4415 2.6826 13.5038 1.74492C12.5661 0.807241 11.2943 0.280457 9.96826 0.280457ZM9.96826 8.28046C9.37492 8.28046 8.7949 8.10451 8.30155 7.77487C7.8082 7.44522 7.42369 6.97669 7.19662 6.42851C6.96956 5.88033 6.91015 5.27713 7.02591 4.69519C7.14166 4.11324 7.42738 3.57869 7.84694 3.15914C8.2665 2.73958 8.80105 2.45386 9.38299 2.3381C9.96493 2.22235 10.5681 2.28176 11.1163 2.50882C11.6645 2.73588 12.133 3.1204 12.4627 3.61375C12.7923 4.10709 12.9683 4.68711 12.9683 5.28046C12.9683 6.07611 12.6522 6.83917 12.0896 7.40178C11.527 7.96439 10.7639 8.28046 9.96826 8.28046ZM18.9683 19.2805V18.2805C18.9683 16.4239 18.2308 14.6435 16.918 13.3307C15.6053 12.018 13.8248 11.2805 11.9683 11.2805H7.96826C6.11175 11.2805 4.33127 12.018 3.01851 13.3307C1.70576 14.6435 0.968262 16.4239 0.968262 18.2805V19.2805H2.96826V18.2805C2.96826 16.9544 3.49505 15.6826 4.43273 14.7449C5.37041 13.8072 6.64218 13.2805 7.96826 13.2805H11.9683C13.2943 13.2805 14.5661 13.8072 15.5038 14.7449C16.4415 15.6826 16.9683 16.9544 16.9683 18.2805V19.2805H18.9683Z" fill="#222222"/>
</svg>
